<svg xmlns="http://www.w3.org/2000/svg" xmlns:xlink="http://www.w3.org/1999/xlink" x="0" y="0" version="1.1" viewBox="0 0 1000 300" xml:space="preserve" style="enable-background:new 0 0 1000 300"><style type="text/css">.st0{display:none}.st1{display:inline}.st2,.st3{fill:none}.st3{stroke:#000;stroke-miterlimit:10}.st3,.st4,.st5{stroke-width:7}.st4,.st5,.st6,.st7{stroke:#000;stroke-miterlimit:10}.st4{fill:#46e1c8}.st5{fill:#e6be00}.st6,.st7{fill:none;stroke-width:3}.st7{stroke-dasharray:4.8291,4.8291}</style><g id="Ebene_1" class="st0"><g class="st1"><rect width="145.6" height="33.3" x="35.3" y="69.8" class="st2"/><path d="M56.4,90.7h-4.5l-6.1-7h-4v7h-4v-21c3.4,0,6.6,0,10,0c4.9,0,7.6,3.4,7.6,7c0,2.9-1.3,5.8-5.3,6.6l6.4,7.2V90.7z M41.8,73.4v6.7h6c2.5,0,3.6-1.7,3.6-3.4c0-1.7-1.1-3.4-3.6-3.4H41.8z"/><path d="M61.3,84.7c0.2,1.8,1.8,3.1,4.4,3.1c1.3,0,3.1-0.5,4-1.4l2.3,2.3c-1.6,1.6-4.1,2.4-6.4,2.4c-5.1,0-8.1-3.2-8.1-7.9 c0-4.5,3.1-7.7,7.9-7.7c4.9,0,8,3.1,7.5,9.1H61.3z M69.4,81.7c-0.2-1.9-1.7-2.9-3.8-2.9c-2,0-3.6,1-4.1,2.9H69.4z"/><path d="M87.3,97.5V89c-1.1,1.6-3.3,2.2-4.9,2.2c-4.7,0-7.5-3.5-7.5-7.8c0-4.3,3-7.7,7.6-7.7c1.7,0,3.6,0.7,4.8,2.4l0.2-2H91v21.6 H87.3z M87,83.4c0-2.3-1.6-4.2-4.2-4.2c-2.6,0-4.2,1.9-4.2,4.2c0,2.3,1.7,4.2,4.2,4.2C85.3,87.6,87,85.7,87,83.4z"/><path d="M98.4,76v7.9c0,2.2,1.2,4,3.6,4c2.3,0,3.8-1.9,3.8-4.1V76h3.6v14.8h-3.3l-0.2-1.9c-1.5,1.5-2.9,2.2-5,2.2 c-3.5,0-6.1-2.7-6.1-7.3V76H98.4z"/><path d="M116.2,84.7c0.2,1.8,1.8,3.1,4.4,3.1c1.3,0,3.1-0.5,4-1.4l2.3,2.3c-1.6,1.6-4.1,2.4-6.4,2.4c-5.1,0-8.1-3.2-8.1-7.9 c0-4.5,3.1-7.7,7.9-7.7c4.9,0,8,3.1,7.5,9.1H116.2z M124.3,81.7c-0.2-1.9-1.7-2.9-3.8-2.9c-2,0-3.6,1-4.1,2.9H124.3z"/><path d="M140,79.9c-1.1-1-2.2-1.3-3.7-1.3c-1.8,0-2.7,0.5-2.7,1.5c0,1,0.9,1.5,2.8,1.6c2.8,0.2,6.3,0.8,6.3,4.7 c0,2.6-2.2,4.9-6.4,4.9c-2.4,0-4.6-0.4-6.8-2.6l1.8-2.6c1.4,1.5,3.4,2,5.1,2.1c1.4,0,2.7-0.5,2.7-1.6c0-1-0.8-1.6-2.9-1.7 c-2.8-0.2-6.1-1.2-6.1-4.6c0-3.5,3.5-4.6,6.2-4.6c2.3,0,4,0.4,5.8,1.9L140,79.9z"/><path d="M151,71.8V76h4.1v3.1h-4.1v6.5c0,1.4,0.8,2.1,1.9,2.1c0.6,0,1.2-0.2,1.8-0.4l1,3.1c-1.1,0.5-1.9,0.6-3,0.6 c-3.2,0.1-5.3-1.7-5.3-5.4v-6.5h-2.8V76h2.8v-3.9L151,71.8z"/><path d="M167.4,79.9c-1.1-1-2.2-1.3-3.7-1.3c-1.8,0-2.7,0.5-2.7,1.5c0,1,0.9,1.5,2.8,1.6c2.8,0.2,6.3,0.8,6.3,4.7 c0,2.6-2.2,4.9-6.4,4.9c-2.4,0-4.6-0.4-6.8-2.6l1.8-2.6c1.4,1.5,3.4,2,5.1,2.1c1.4,0,2.7-0.5,2.7-1.6c0-1-0.8-1.6-2.9-1.7 c-2.8-0.2-6.1-1.2-6.1-4.6c0-3.5,3.5-4.6,6.2-4.6c2.3,0,4,0.4,5.8,1.9L167.4,79.9z"/></g><g class="st1"><rect width="163.9" height="33.3" x="35.3" y="207.8" class="st2"/><path d="M56.4,228.7h-4.5l-6.1-7h-4v7h-4v-21c3.4,0,6.6,0,10,0c4.9,0,7.6,3.4,7.6,7c0,2.9-1.3,5.8-5.3,6.6l6.4,7.2V228.7z M41.8,211.4v6.7h6c2.5,0,3.6-1.7,3.6-3.4c0-1.7-1.1-3.4-3.6-3.4H41.8z"/><path d="M61.3,222.7c0.2,1.8,1.8,3.2,4.4,3.2c1.3,0,3.1-0.5,4-1.4l2.3,2.3c-1.6,1.6-4.1,2.4-6.4,2.4c-5.1,0-8.1-3.2-8.1-7.9 c0-4.5,3.1-7.7,7.9-7.7c4.9,0,8,3.1,7.5,9.1H61.3z M69.4,219.7c-0.2-1.9-1.7-2.9-3.8-2.9c-2,0-3.6,1-4.1,2.9H69.4z"/><path d="M85.1,217.9c-1.1-1-2.2-1.3-3.7-1.3c-1.8,0-2.7,0.5-2.7,1.5c0,1,0.9,1.5,2.8,1.6c2.8,0.2,6.3,0.8,6.3,4.7 c0,2.6-2.2,4.9-6.4,4.9c-2.4,0-4.6-0.4-6.8-2.6l1.8-2.6c1.4,1.5,3.4,2,5.1,2.1c1.4,0,2.7-0.5,2.7-1.6c0-1-0.8-1.6-2.9-1.7 c-2.8-0.2-6.1-1.2-6.1-4.6c0-3.5,3.5-4.6,6.2-4.6c2.3,0,4,0.4,5.8,1.9L85.1,217.9z"/><path d="M90.7,235.5V214h3.4l0.2,2c1.2-1.7,3.1-2.4,4.8-2.4c4.6,0,7.6,3.4,7.6,7.7c0,4.3-2.7,7.8-7.5,7.8c-1.6,0-3.8-0.5-4.9-2.2 v8.5H90.7z M103.1,221.4c0-2.3-1.6-4.2-4.2-4.2c-2.6,0-4.2,1.9-4.2,4.2c0,2.3,1.7,4.2,4.2,4.2 C101.5,225.6,103.1,223.7,103.1,221.4z"/><path d="M124.4,221.4c0,4.3-2.9,7.8-7.8,7.8c-4.8,0-7.7-3.5-7.7-7.8c0-4.2,3-7.8,7.7-7.8C121.3,213.6,124.4,217.1,124.4,221.4z M112.6,221.4c0,2.2,1.4,4.4,4,4.4s4-2.2,4-4.4c0-2.2-1.6-4.4-4-4.4C114,217,112.6,219.1,112.6,221.4z"/><path d="M138.4,228.7v-7.8c0-2.2-1.3-4-3.6-4c-2.3,0-3.8,1.9-3.8,4.1v7.6h-3.6V214h3.3l0.2,1.9c1.5-1.7,3-2.2,4.9-2.2 c3.5,0,6.3,2.6,6.3,7.3v7.9H138.4z"/><path d="M155.1,217.9c-1.1-1-2.2-1.3-3.7-1.3c-1.8,0-2.7,0.5-2.7,1.5c0,1,0.9,1.5,2.8,1.6c2.8,0.2,6.3,0.8,6.3,4.7 c0,2.6-2.2,4.9-6.4,4.9c-2.4,0-4.6-0.4-6.8-2.6l1.8-2.6c1.4,1.5,3.4,2,5.1,2.1c1.4,0,2.7-0.5,2.7-1.6c0-1-0.8-1.6-2.9-1.7 c-2.8-0.2-6.1-1.2-6.1-4.6c0-3.5,3.5-4.6,6.2-4.6c2.3,0,4,0.4,5.8,1.9L155.1,217.9z"/><path d="M163.6,222.7c0.2,1.8,1.8,3.2,4.4,3.2c1.3,0,3.1-0.5,4-1.4l2.3,2.3c-1.6,1.6-4.1,2.4-6.4,2.4c-5.1,0-8.1-3.2-8.1-7.9 c0-4.5,3.1-7.7,7.9-7.7c4.9,0,8,3.1,7.5,9.1H163.6z M171.7,219.7c-0.2-1.9-1.7-2.9-3.8-2.9c-2,0-3.6,1-4.1,2.9H171.7z"/><path d="M187.4,217.9c-1-1-2.2-1.3-3.7-1.3c-1.8,0-2.7,0.5-2.7,1.5c0,1,0.9,1.5,2.8,1.6c2.8,0.2,6.3,0.8,6.3,4.7 c0,2.6-2.2,4.9-6.4,4.9c-2.4,0-4.6-0.4-6.8-2.6l1.8-2.6c1.4,1.5,3.4,2,5.1,2.1c1.4,0,2.7-0.5,2.7-1.6c0-1-0.8-1.6-2.9-1.7 c-2.8-0.2-6.1-1.2-6.1-4.6c0-3.5,3.5-4.6,6.2-4.6c2.3,0,4,0.4,5.8,1.9L187.4,217.9z"/></g></g><g id="Ebene_1_Kopie"><line x1="236.9" x2="39" y1="149.4" y2="150.2" class="st3"/></g><g id="Ebene_2" class="st0"><g class="st1"><rect width="253.9" height="67.8" x="240.9" y="48.1" class="st4"/><g><rect width="66.7" height="37.2" x="255.9" y="63.1" class="st2"/><path d="M257.5,80.7h3.7V68.1l-3.5,1v-3.6l7.4-2.5v17.6h3.5v3.4h-11.1V80.7z"/></g></g><g class="st1"><rect width="253.9" height="67.8" x="521.9" y="48.1" class="st4"/><g><rect width="66.7" height="37.2" x="536.9" y="63.1" class="st2"/><path d="M538.6,69.2c0.4-5,4.7-6.4,8.7-6.4c3.9,0,8.2,1.6,8.2,6.5c0,5.4-4,6.6-8.4,6.6c-1.8,0-4.6,0.5-4.6,2.7v1.8h13v3.7h-17 v-5.5c0-4.8,4.4-6.3,8.5-6.3c1.6,0,4.5-0.5,4.5-2.9c0-2.3-1.8-3.1-4.2-3.1c-2.3,0-4.7,0.9-4.8,2.9H538.6z"/></g></g><g class="st1"><rect width="253.9" height="67.8" x="240.9" y="187.6" class="st5"/><g><rect width="66.7" height="37.2" x="255.9" y="202.6" class="st2"/><path d="M257.5,220.2h3.7v-12.6l-3.5,1V205l7.4-2.5v17.6h3.5v3.4h-11.1V220.2z"/></g></g><g class="st1"><rect width="253.9" height="67.8" x="521.9" y="187.6" class="st5"/><g><rect width="66.7" height="37.2" x="536.9" y="202.6" class="st2"/><path d="M538.6,208.6c0.4-5,4.7-6.4,8.7-6.4c3.9,0,8.2,1.6,8.2,6.5c0,5.4-4,6.6-8.4,6.6c-1.8,0-4.6,0.5-4.6,2.7v1.8h13v3.7h-17 V218c0-4.8,4.4-6.3,8.5-6.3c1.6,0,4.5-0.5,4.5-2.9c0-2.3-1.8-3.1-4.2-3.1c-2.3,0-4.7,0.9-4.8,2.9H538.6z"/></g></g><g class="st1"><rect width="66.7" height="37.2" x="799.9" y="63.4" class="st2"/><path d="M805.8,82.5c0,2.9-4.3,2.9-4.3,0C801.5,79.6,805.8,79.6,805.8,82.5z"/><path d="M813.4,82.5c0,2.9-4.3,2.9-4.3,0C809.1,79.6,813.4,79.6,813.4,82.5z"/><path d="M820.9,82.5c0,2.9-4.3,2.9-4.3,0C816.6,79.6,820.9,79.6,820.9,82.5z"/></g><g class="st1"><rect width="66.7" height="37.2" x="799.9" y="202.8" class="st2"/><path d="M805.8,221.9c0,2.9-4.3,2.9-4.3,0C801.5,219.1,805.8,219.1,805.8,221.9z"/><path d="M813.4,221.9c0,2.9-4.3,2.9-4.3,0C809.1,219.1,813.4,219.1,813.4,221.9z"/><path d="M820.9,221.9c0,2.9-4.3,2.9-4.3,0C816.6,219.1,820.9,219.1,820.9,221.9z"/></g></g><g id="Ebene_2_Kopie" class="st0"><g class="st1"><rect width="253.9" height="67.8" x="240.9" y="48.1" class="st4"/><g><rect width="66.7" height="37.2" x="255.9" y="63.1" class="st2"/><path d="M257.5,80.7h3.7V68.1l-3.5,1v-3.6l7.4-2.5v17.6h3.5v3.4h-11.1V80.7z"/></g></g><g class="st1"><rect width="253.9" height="67.8" x="521.9" y="48.1" class="st4"/><g><rect width="66.7" height="37.2" x="536.9" y="63.1" class="st2"/><path d="M538.6,69.2c0.4-5,4.7-6.4,8.7-6.4c3.9,0,8.2,1.6,8.2,6.5c0,5.4-4,6.6-8.4,6.6c-1.8,0-4.6,0.5-4.6,2.7v1.8h13v3.7h-17 v-5.5c0-4.8,4.4-6.3,8.5-6.3c1.6,0,4.5-0.5,4.5-2.9c0-2.3-1.8-3.1-4.2-3.1c-2.3,0-4.7,0.9-4.8,2.9H538.6z"/></g></g><g class="st1"><rect width="253.9" height="67.8" x="240.9" y="187.6" class="st5"/><g><rect width="66.7" height="37.2" x="255.9" y="202.6" class="st2"/><path d="M257.5,220.2h3.7v-12.6l-3.5,1V205l7.4-2.5v17.6h3.5v3.4h-11.1V220.2z"/></g></g><g class="st1"><rect width="253.9" height="67.8" x="521.9" y="187.6" class="st5"/><g><rect width="66.7" height="37.2" x="536.9" y="202.6" class="st2"/><path d="M538.6,208.6c0.4-5,4.7-6.4,8.7-6.4c3.9,0,8.2,1.6,8.2,6.5c0,5.4-4,6.6-8.4,6.6c-1.8,0-4.6,0.5-4.6,2.7v1.8h13v3.7h-17 V218c0-4.8,4.4-6.3,8.5-6.3c1.6,0,4.5-0.5,4.5-2.9c0-2.3-1.8-3.1-4.2-3.1c-2.3,0-4.7,0.9-4.8,2.9H538.6z"/></g></g><g class="st1"><rect width="66.7" height="37.2" x="799.9" y="63.4" class="st2"/><path d="M805.8,82.5c0,2.9-4.3,2.9-4.3,0C801.5,79.6,805.8,79.6,805.8,82.5z"/><path d="M813.4,82.5c0,2.9-4.3,2.9-4.3,0C809.1,79.6,813.4,79.6,813.4,82.5z"/><path d="M820.9,82.5c0,2.9-4.3,2.9-4.3,0C816.6,79.6,820.9,79.6,820.9,82.5z"/></g><g class="st1"><rect width="66.7" height="37.2" x="799.9" y="202.8" class="st2"/><path d="M805.8,221.9c0,2.9-4.3,2.9-4.3,0C801.5,219.1,805.8,219.1,805.8,221.9z"/><path d="M813.4,221.9c0,2.9-4.3,2.9-4.3,0C809.1,219.1,813.4,219.1,813.4,221.9z"/><path d="M820.9,221.9c0,2.9-4.3,2.9-4.3,0C816.6,219.1,820.9,219.1,820.9,221.9z"/></g><g class="st1"><g><line x1="331" x2="331" y1="48.1" y2="50.6" class="st6"/><line x1="331" x2="331" y1="55.4" y2="111" class="st7"/><line x1="331" x2="331" y1="113.4" y2="115.9" class="st6"/></g></g><g class="st1"><g><line x1="412" x2="412" y1="48.1" y2="50.6" class="st6"/><line x1="412" x2="412" y1="55.4" y2="111" class="st7"/><line x1="412" x2="412" y1="113.4" y2="115.9" class="st6"/></g></g><g class="st1"><g><line x1="606.9" x2="606.9" y1="48.1" y2="50.6" class="st6"/><line x1="606.9" x2="606.9" y1="55.4" y2="111" class="st7"/><line x1="606.9" x2="606.9" y1="113.4" y2="115.9" class="st6"/></g></g><g class="st1"><g><line x1="687.9" x2="687.9" y1="48.1" y2="50.6" class="st6"/><line x1="687.9" x2="687.9" y1="55.4" y2="111" class="st7"/><line x1="687.9" x2="687.9" y1="113.4" y2="115.9" class="st6"/></g></g><g class="st1"><g><line x1="331" x2="331" y1="190.6" y2="193.1" class="st6"/><line x1="331" x2="331" y1="197.9" y2="253.4" class="st7"/><line x1="331" x2="331" y1="255.8" y2="258.3" class="st6"/></g></g><g class="st1"><g><line x1="412" x2="412" y1="190.6" y2="193.1" class="st6"/><line x1="412" x2="412" y1="197.9" y2="253.4" class="st7"/><line x1="412" x2="412" y1="255.8" y2="258.3" class="st6"/></g></g><g class="st1"><g><line x1="606.9" x2="606.9" y1="190.6" y2="193.1" class="st6"/><line x1="606.9" x2="606.9" y1="197.9" y2="253.4" class="st7"/><line x1="606.9" x2="606.9" y1="255.8" y2="258.3" class="st6"/></g></g><g class="st1"><g><line x1="687.9" x2="687.9" y1="190.6" y2="193.1" class="st6"/><line x1="687.9" x2="687.9" y1="197.9" y2="253.4" class="st7"/><line x1="687.9" x2="687.9" y1="255.8" y2="258.3" class="st6"/></g></g></g><g id="Ebene_2_Kopie_Kopie" class="st0"><g class="st1"><rect width="90.1" height="67.8" x="240.9" y="48.1" class="st4"/><g><rect width="66.7" height="37.2" x="255.9" y="63.1" class="st2"/><path d="M257.5,80.7h3.7V68.1l-3.5,1v-3.6l7.4-2.5v17.6h3.5v3.4h-11.1V80.7z"/></g></g><g class="st1"><rect width="90.1" height="67.8" x="412" y="48.1" class="st4"/><g><rect width="66.7" height="37.2" x="427" y="63.1" class="st2"/><path d="M428.7,69.2c0.4-5,4.7-6.4,8.7-6.4c3.9,0,8.2,1.6,8.2,6.5c0,5.4-4,6.6-8.4,6.6c-1.8,0-4.6,0.5-4.6,2.7v1.8h13v3.7h-17 v-5.5c0-4.8,4.4-6.3,8.5-6.3c1.6,0,4.5-0.5,4.5-2.9c0-2.3-1.8-3.1-4.2-3.1c-2.3,0-4.7,0.9-4.8,2.9H428.7z"/></g></g><g class="st1"><rect width="90.1" height="67.8" x="583.1" y="48.1" class="st4"/><g><rect width="66.7" height="37.2" x="598.1" y="63.1" class="st2"/><path d="M599.7,80.7h3.7V68.1l-3.5,1v-3.6l7.4-2.5v17.6h3.5v3.4h-11.1V80.7z"/></g></g><g class="st1"><rect width="90.1" height="67.8" x="754.2" y="48.1" class="st4"/><g><rect width="66.7" height="37.2" x="769.2" y="63.1" class="st2"/><path d="M771,69.2c0.4-5,4.7-6.4,8.7-6.4c3.9,0,8.2,1.6,8.2,6.5c0,5.4-4,6.6-8.4,6.6c-1.8,0-4.6,0.5-4.6,2.7v1.8h13v3.7h-17v-5.5 c0-4.8,4.4-6.3,8.5-6.3c1.6,0,4.5-0.5,4.5-2.9c0-2.3-1.8-3.1-4.2-3.1c-2.3,0-4.7,0.9-4.8,2.9H771z"/></g></g><g class="st1"><rect width="90.1" height="67.8" x="327.9" y="187.3" class="st5"/><g><rect width="66.7" height="37.2" x="342.9" y="202.3" class="st2"/><path d="M344.5,219.9h3.7v-12.6l-3.5,1v-3.6l7.4-2.5v17.6h3.5v3.4h-11.1V219.9z"/></g></g><g class="st1"><rect width="90.1" height="67.8" x="499" y="187.3" class="st5"/><g><rect width="66.7" height="37.2" x="514" y="202.3" class="st2"/><path d="M515.7,208.3c0.4-5,4.7-6.4,8.7-6.4c3.9,0,8.2,1.6,8.2,6.5c0,5.4-4,6.6-8.4,6.6c-1.8,0-4.6,0.5-4.6,2.7v1.8h13v3.7h-17 v-5.5c0-4.8,4.4-6.3,8.5-6.3c1.6,0,4.5-0.5,4.5-2.9c0-2.3-1.8-3.1-4.2-3.2c-2.3,0-4.7,0.9-4.8,2.9H515.7z"/></g></g><g class="st1"><rect width="90.1" height="67.8" x="670.1" y="187.3" class="st5"/><g><rect width="66.7" height="37.2" x="685.1" y="202.3" class="st2"/><path d="M686.7,219.9h3.7v-12.6l-3.5,1v-3.6l7.4-2.5v17.6h3.5v3.4h-11.1V219.9z"/></g></g><g class="st1"><g><rect width="66.7" height="37.2" x="342.9" y="202.6" class="st2"/><path d="M344.5,220.2h3.7v-12.6l-3.5,1V205l7.4-2.5v17.6h3.5v3.4h-11.1V220.2z"/></g></g><g class="st1"><rect width="66.7" height="37.2" x="917.9" y="63.4" class="st2"/><path d="M923.8,82.5c0,2.9-4.3,2.9-4.3,0C919.5,79.6,923.8,79.6,923.8,82.5z"/><path d="M931.4,82.5c0,2.9-4.3,2.9-4.3,0C927.1,79.6,931.4,79.6,931.4,82.5z"/><path d="M938.9,82.5c0,2.9-4.3,2.9-4.3,0C934.6,79.6,938.9,79.6,938.9,82.5z"/></g><g class="st1"><rect width="66.7" height="37.2" x="917.9" y="205.8" class="st2"/><path d="M923.8,224.9c0,2.9-4.3,2.9-4.3,0C919.5,222.1,923.8,222.1,923.8,224.9z"/><path d="M931.4,224.9c0,2.9-4.3,2.9-4.3,0C927.1,222.1,931.4,222.1,931.4,224.9z"/><path d="M938.9,224.9c0,2.9-4.3,2.9-4.3,0C934.6,222.1,938.9,222.1,938.9,224.9z"/></g><g class="st1"><g><line x1="418" x2="418" y1="190.6" y2="193.1" class="st6"/><line x1="418" x2="418" y1="197.9" y2="253.4" class="st7"/><line x1="418" x2="418" y1="255.8" y2="258.3" class="st6"/></g></g><g class="st1"><g><line x1="499" x2="499" y1="190.6" y2="193.1" class="st6"/><line x1="499" x2="499" y1="197.9" y2="253.4" class="st7"/><line x1="499" x2="499" y1="255.8" y2="258.3" class="st6"/></g></g></g><g id="Ebene_2_Kopie_Kopie_Kopie"><g><rect width="90.1" height="67.8" x="236.9" y="116.1" class="st4"/><g><rect width="66.7" height="37.2" x="251.9" y="131.1" class="st2"/><path d="M253.5,148.7h3.7v-12.6l-3.5,1v-3.6l7.4-2.5v17.6h3.5v3.4h-11.1V148.7z"/></g></g><g><rect width="90.1" height="67.8" x="415" y="116.1" class="st4"/><g><rect width="66.7" height="37.2" x="430" y="131.1" class="st2"/><path d="M431.7,137.2c0.4-5,4.7-6.4,8.7-6.4c3.9,0,8.2,1.6,8.2,6.5c0,5.4-4,6.6-8.4,6.6c-1.8,0-4.6,0.5-4.6,2.7v1.8h13v3.7h-17 v-5.5c0-4.8,4.4-6.3,8.5-6.3c1.6,0,4.5-0.5,4.5-2.9c0-2.3-1.8-3.1-4.2-3.1c-2.3,0-4.7,0.9-4.8,2.9H431.7z"/></g></g><g><rect width="90.1" height="67.8" x="593.1" y="116.1" class="st4"/><g><rect width="66.7" height="37.2" x="608.1" y="131.1" class="st2"/><path d="M609.7,148.7h3.7v-12.6l-3.5,1v-3.6l7.4-2.5v17.6h3.5v3.4h-11.1V148.7z"/></g></g><g><rect width="90.1" height="67.8" x="771.2" y="116" class="st4"/><g><rect width="66.7" height="37.2" x="786.2" y="131" class="st2"/><path d="M788,137.1c0.4-5,4.7-6.4,8.7-6.4c3.9,0,8.2,1.6,8.2,6.5c0,5.4-4,6.6-8.4,6.6c-1.8,0-4.6,0.5-4.6,2.7v1.8h13v3.7h-17 v-5.5c0-4.8,4.4-6.3,8.5-6.3c1.6,0,4.5-0.5,4.5-2.9c0-2.3-1.8-3.1-4.2-3.1c-2.3,0-4.7,0.9-4.8,2.9H788z"/></g></g><g><rect width="90.1" height="67.8" x="325.9" y="116.3" class="st5"/><g><rect width="66.7" height="37.2" x="340.9" y="131.3" class="st2"/><path d="M342.5,148.9h3.7v-12.6l-3.5,1v-3.6l7.4-2.5v17.6h3.5v3.4h-11.1V148.9z"/></g></g><g><rect width="90.1" height="67.8" x="504" y="116.3" class="st5"/><g><rect width="66.7" height="37.2" x="519" y="131.3" class="st2"/><path d="M520.7,137.3c0.4-5,4.7-6.4,8.7-6.4c3.9,0,8.2,1.6,8.2,6.5c0,5.4-4,6.6-8.4,6.6c-1.8,0-4.6,0.5-4.6,2.7v1.8h13v3.7h-17 v-5.5c0-4.8,4.4-6.3,8.5-6.3c1.6,0,4.5-0.5,4.5-2.9c0-2.3-1.8-3.1-4.2-3.1c-2.3,0-4.7,0.9-4.8,2.9H520.7z"/></g></g><g><rect width="90.1" height="67.8" x="682.1" y="115.8" class="st5"/><g><rect width="66.7" height="37.2" x="697.1" y="130.8" class="st2"/><path d="M698.7,148.4h3.7v-12.6l-3.5,1v-3.6l7.4-2.5v17.6h3.5v3.4h-11.1V148.4z"/></g></g><g><rect width="66.7" height="37.2" x="917.9" y="133.4" class="st2"/><path d="M923.8,152.5c0,2.8-4.3,2.8-4.3,0S923.8,149.6,923.8,152.5z"/><path d="M931.4,152.5c0,2.8-4.3,2.8-4.3,0S931.4,149.6,931.4,152.5z"/><path d="M938.9,152.5c0,2.8-4.3,2.8-4.3,0S938.9,149.6,938.9,152.5z"/></g></g></svg>