<svg xmlns="http://www.w3.org/2000/svg" xmlns:xlink="http://www.w3.org/1999/xlink" id="Ebene_1" x="0" y="0" version="1.1" viewBox="0 0 202.8 57.9" xml:space="preserve" style="enable-background:new 0 0 202.8 57.9"><style type="text/css">.st0{fill:#46e1c8}</style><switch><g><g><g><path d="M30.3,36.4c-1.5,1.1-3,2.2-4.6,3.3L15.6,22.2l9.4-5.4c2.6-1.5,4.8-1.8,6.6-1.1c2.2,1,3.3,3.5,2.6,5.8 c-0.3,0.9-0.9,2.1-4.2,4c-1.5,0.9-4.1,2.4-4.1,2.4l-0.4,0.2L30.3,36.4z" class="st0"/><path d="M55.4,17.1C52.2,10,46.5,4.6,39.2,1.9C32-0.8,24.1-0.6,17.1,2.6C10,5.7,4.6,11.5,1.9,18.7 c-2.7,7.2-2.5,15.1,0.7,22.2c3.2,7.1,8.9,12.4,16.1,15.2c3.3,1.3,6.8,1.9,10.3,1.9c4,0,8.1-0.9,11.9-2.6 C55.4,48.8,61.9,31.6,55.4,17.1z M39.7,35c-0.9-0.2-1.7,0-2.5,0.6c-0.4,0.3-1.1,0.8-2.2,1.5l-10,7.2l-0.4,0.3L10.9,21l0.4-0.2 c0,0,9-5.2,10.2-5.9c0.2-0.1,0.4-0.3,0.7-0.4l0.1,0c0.8-0.5,1.6-0.9,2.4-1.3c1.4-0.7,3.4-1.4,5.3-1.3c1.8,0.1,3.5,0.8,4.9,2 c2.9,2.4,3.7,6.8,1.8,10.2c-1,1.8-2.5,2.9-3.9,3.8c-0.9,0.5-1.8,1-2.6,1.5l2.9,5l0.1-0.1c0.8-0.6,1.7-1.2,2.6-1.8 c2.6-1.5,6-1.1,8.2,1c2.3,2.2,2.6,5.9,0.7,8.4c-1.3,1.7-3.3,2.7-5.5,2.7c-1.1,0-2.1-0.2-3-0.7c-1.1-0.5-2-1.3-2.9-2.8l3-1.7 c0.5,0.9,1.4,1.5,2.4,1.7c0.9,0.2,1.8,0,2.5-0.5c0.7-0.5,1.2-1.2,1.4-2C42.7,37,41.5,35.4,39.7,35z" class="st0"/></g><g><g id="XMLID_22_"><path id="XMLID_39_" d="M76.9,19.6c-1.5,0-3.6,0.6-4.8,2.4l-0.3,0.4l-0.3-2.4h-3.2v21.4h3.4v-8.7l0.3,0.5c1,1.5,3.2,2.1,5,2.1 c4.5,0,7.6-3.2,7.6-7.9C84.6,22.9,81.4,19.6,76.9,19.6z M76.6,32c-2.6,0-4.5-2-4.5-4.5c0-2.7,1.9-4.5,4.5-4.5 c2.7,0,4.5,1.9,4.5,4.5C81.2,30.1,79.2,32,76.6,32z"/><path id="XMLID_38_" d="M131,21.6l-0.3,0.4l-0.3-2.1h-3.2v15h3.4V27c0-2.6,1.5-4.1,4-4.1c1.2,0,2,0.3,2.7,0.9l1.6-3 c-0.9-0.8-2.3-1.3-3.7-1.3C133.7,19.5,132.2,19.8,131,21.6z"/><path id="XMLID_37_" d="M143.3,13.4c-1,0-2.1,0.6-2.1,2s1.1,2,2.1,2s2.1-0.6,2.1-2S144.3,13.4,143.3,13.4z"/><rect id="XMLID_36_" width="3.4" height="15.1" x="141.6" y="19.9"/><path id="XMLID_33_" d="M162.3,18.5l-1.5,1.9l-0.1-0.1c-1.1-0.7-2.4-0.8-3.4-0.8c-4.5,0-7.6,3.1-7.6,7.6c0,4.7,2.9,7.6,7.6,7.6 c2,0,4.1,1,4.1,3.3c0,2.1-1.6,3.5-4.1,3.5c-2.3,0-4.1-1.4-4.2-3.3h-3.4c0.1,3.8,3.2,6.5,7.6,6.5c4.5,0,7.5-2.7,7.5-6.7 c0-2.3-0.9-3.9-3.1-4.9l-0.3-0.2l0.3-0.2c2.9-1.3,3.1-4.6,3.1-5.6c0-1.8-0.5-3.2-1.6-4.4l-0.1-0.1l1.7-2.2L162.3,18.5z M157.2,31.5c-2.5,0-4.2-1.8-4.2-4.5c0-2.6,1.8-4.5,4.2-4.5c2.4,0,4.2,1.9,4.2,4.5C161.4,29.6,159.6,31.5,157.2,31.5z"/><path id="XMLID_30_" d="M176.2,19.6c-4.5,0-7.8,3.3-7.8,7.8c0,4.6,3.2,7.8,7.8,7.8c4.6,0,7.8-3.2,7.8-7.8 C184.1,22.9,180.8,19.6,176.2,19.6z M176.2,32.2c-3,0-4.4-2.4-4.4-4.7c0-2.4,1.5-4.7,4.4-4.7c2.7,0,4.4,2.4,4.4,4.7 C180.6,29.7,179.2,32.2,176.2,32.2z"/><path id="XMLID_29_" d="M196.4,19.7c-1.8,0-3.3,0.7-4.9,2.3l-0.3,0.3l-0.3-2.3h-3.1v15h3.4v-7.7c0-2.6,1.8-4.5,4.1-4.5 c2.4,0,3.9,1.7,3.9,4.3V35h3.4v-7.9C202.8,22.7,200.2,19.7,196.4,19.7z"/><path id="XMLID_26_" d="M96.3,32.3c-2.7,0-4.5-1.3-4.8-3.4l0-0.2h12.1c0.2-3-0.4-5.4-1.8-6.9c-1.3-1.4-3.3-2.2-5.8-2.2 c-4.8,0-8,3.2-8,7.9c0,4.9,3.2,8,8.3,8c2.3,0,4.9-0.7,6.3-2.1l-1.5-2.6C99.7,31.8,98.1,32.3,96.3,32.3z M91.6,25.6 c0.5-2,2.2-3.1,4.5-3.1c2.4,0,3.9,1.1,4.2,3.2l0,0.2h-8.7L91.6,25.6z"/><path id="XMLID_23_" d="M115.8,32.3c-2.7,0-4.5-1.3-4.8-3.4l0-0.2h12.1c0.2-3-0.4-5.4-1.8-6.9c-1.3-1.4-3.3-2.2-5.8-2.2 c-4.8,0-8,3.2-8,7.9c0,4.9,3.2,8,8.3,8c2.3,0,4.9-0.7,6.3-2.1l-1.5-2.6C119.2,31.8,117.5,32.3,115.8,32.3z M111.1,25.6 c0.5-2,2.2-3.1,4.5-3.1c2.4,0,3.9,1.1,4.2,3.2l0,0.2H111L111.1,25.6z"/></g></g></g></g></switch></svg>